<svg xmlns="http://www.w3.org/2000/svg" xmlns:xlink="http://www.w3.org/1999/xlink" width="249" height="107" viewBox="0 0 249 107"><defs><path id="eiqla" d="M671 829c0-187.78 152.67-340 341-340s341 152.22 341 340-152.67 340-341 340-341-152.22-341-340z"/><path id="eiqlb" d="M932.63 1159.74A342.88 342.88 0 0 0 1012 1169c96.43 0 183.51-39.91 245.54-104.07 59.1-61.14 95.46-144.3 95.46-235.93 0-105.1-47.82-199.06-122.96-261.43"/><path id="eiqlc" d="M681 830c0-182.8 148.2-331 331-331s331 148.2 331 331-148.2 331-331 331-331-148.2-331-331z"/><path id="eiqld" d="M934.96 1151.98A331.9 331.9 0 0 0 1012 1161c93.6 0 178.13-38.85 238.34-101.31 57.38-59.52 92.66-140.49 92.66-229.7 0-102.31-46.42-193.78-119.35-254.5"/><path id="eiqle" d="M691 830c0-177.28 143.72-321 321-321s321 143.72 321 321-143.72 321-321 321-321-143.72-321-321z"/><path id="eiqlf" d="M937.28 1142.26c23.97 5.71 49 8.74 74.72 8.74 90.77 0 172.74-37.68 231.13-98.25C1298.77 995.03 1333 916.51 1333 830c0-99.23-45.02-187.94-115.75-246.82"/><path id="eiqlg" d="M701 830c0-171.76 139.24-311 311-311s311 139.24 311 311-139.24 311-311 311-311-139.24-311-311z"/><path id="eiqlh" d="M939.61 1132.53A311.84 311.84 0 0 0 1012 1141c87.94 0 167.36-36.5 223.93-95.19A309.96 309.96 0 0 0 1323 830c0-96.14-43.62-182.08-112.15-239.13"/><path id="eiqli" d="M711 830c0-166.24 134.76-301 301-301s301 134.76 301 301-134.76 301-301 301-301-134.76-301-301z"/><path id="eiqlj" d="M941.94 1122.8a301.81 301.81 0 0 0 70.06 8.2c85.12 0 161.98-35.33 216.73-92.13A300 300 0 0 0 1313 830c0-93.04-42.21-176.23-108.54-231.44"/><path id="eiqlk" d="M721 830c0-160.71 130.29-291 291-291s291 130.29 291 291-130.29 291-291 291-291-130.29-291-291z"/><path id="eiqll" d="M944.27 1113.08A291.79 291.79 0 0 0 1012 1121c82.3 0 156.6-34.16 209.54-89.06A290.03 290.03 0 0 0 1303 830c0-89.95-40.8-170.37-104.93-223.75"/><path id="eiqlm" d="M731 830c0-155.2 125.8-281 281-281s281 125.8 281 281-125.8 281-281 281-281-125.8-281-281z"/><path id="eiqln" d="M946.59 1103.35c20.99 5 42.89 7.65 65.4 7.65 79.47 0 151.23-32.98 202.34-86A280.06 280.06 0 0 0 1293 830c0-86.86-39.41-164.52-101.33-216.06"/><path id="eiqlo" d="M741 830c0-149.67 121.33-271 271-271 149.67 0 271 121.33 271 271 0 149.67-121.33 271-271 271-149.67 0-271-121.33-271-271z"/><path id="eiqlp" d="M948.92 1093.62A271.73 271.73 0 0 0 1012 1101c76.63 0 145.84-31.8 195.13-82.94A270.1 270.1 0 0 0 1283 830c0-83.77-38.01-158.66-97.72-208.37"/><path id="eiqlq" d="M751 830c0-144.15 116.85-261 261-261s261 116.85 261 261-116.85 261-261 261-261-116.85-261-261z"/><path id="eiqlr" d="M951.25 1083.9a261.7 261.7 0 0 0 60.75 7.1c73.8 0 140.46-30.63 187.93-79.88A260.13 260.13 0 0 0 1273 830c0-80.68-36.6-152.8-94.11-200.68"/><path id="eiqls" d="M761 830c0-138.62 112.38-251 251-251s251 112.38 251 251-112.38 251-251 251-251-112.38-251-251z"/><path id="eiqlt" d="M953.58 1074.17A251.68 251.68 0 0 0 1012 1081a250.27 250.27 0 0 0 180.73-76.82A250.16 250.16 0 0 0 1263 830c0-77.58-35.2-146.95-90.5-192.99"/><path id="eiqlu" d="M771 830c0-133.1 107.9-241 241-241s241 107.9 241 241-107.9 241-241 241-241-107.9-241-241z"/><path id="eiqlv" d="M955.9 1064.43c18 4.3 36.78 6.57 56.1 6.57a240.3 240.3 0 0 0 173.53-73.77A240.2 240.2 0 0 0 1253 830c0-74.5-33.8-141.1-86.9-185.31"/><path id="eiqlw" d="M781 830c0-127.58 103.42-231 231-231s231 103.42 231 231-103.42 231-231 231-231-103.42-231-231z"/><path id="eiqlx" d="M958.23 1054.7a231.62 231.62 0 0 0 53.77 6.3 230.33 230.33 0 0 0 166.33-70.7A230.23 230.23 0 0 0 1243 830c0-71.4-32.4-135.25-83.3-177.62"/><path id="eiqly" d="M791 830c0-122.05 98.95-221 221-221s221 98.95 221 221-98.95 221-221 221-221-98.95-221-221z"/><path id="eiqlz" d="M960.56 1044.98A221.6 221.6 0 0 0 1012 1051c62.5 0 118.93-25.94 159.13-67.64A220.26 220.26 0 0 0 1233 830c0-68.32-31-129.4-79.69-169.93"/><path id="eiqlA" d="M801 830c0-116.53 94.47-211 211-211s211 94.47 211 211-94.47 211-211 211-211-94.47-211-211z"/><path id="eiqlB" d="M962.89 1035.25A211.57 211.57 0 0 0 1012 1041a210.38 210.38 0 0 0 151.93-64.58A210.3 210.3 0 0 0 1223 830c0-65.22-29.59-123.54-76.08-162.24"/><path id="eiqlC" d="M811 830c0-111 90-201 201-201s201 90 201 201-90 201-201 201-201-90-201-201z"/><path id="eiqlD" d="M965.21 1025.53A201.54 201.54 0 0 0 1012 1031c56.83 0 108.16-23.6 144.72-61.52A200.33 200.33 0 0 0 1213 830c0-62.13-28.2-117.68-72.48-154.55"/><path id="eiqlE" d="M821 830c0-105.49 85.51-191 191-191s191 85.51 191 191-85.51 191-191 191-191-85.51-191-191z"/><path id="eiqlF" d="M967.54 1015.8c14.27 3.4 29.15 5.2 44.46 5.2a190.44 190.44 0 0 0 137.53-58.46A190.36 190.36 0 0 0 1203 830c0-59.04-26.8-111.82-68.88-146.86"/><path id="eiqlG" d="M831 830c0-99.96 81.04-181 181-181s181 81.04 181 181-81.04 181-181 181-181-81.04-181-181z"/><path id="eiqlH" d="M969.87 1006.07A181.49 181.49 0 0 0 1012 1011c51.18 0 97.4-21.24 130.33-55.4A180.4 180.4 0 0 0 1193 830a180.62 180.62 0 0 0-65.27-139.17"/><path id="eiqlI" d="M841 830c0-94.44 76.56-171 171-171s171 76.56 171 171-76.56 171-171 171-171-76.56-171-171z"/><path id="eiqlJ" d="M972.2 996.35a171.46 171.46 0 0 0 39.8 4.65 170.5 170.5 0 0 0 123.13-52.33A170.43 170.43 0 0 0 1183 830a170.64 170.64 0 0 0-61.66-131.48"/><path id="eiqlK" d="M851 830c0-88.92 72.08-161 161-161s161 72.08 161 161-72.08 161-161 161-161-72.08-161-161z"/><path id="eiqlL" d="M974.53 986.62A161.44 161.44 0 0 0 1012 991c45.53 0 86.65-18.9 115.93-49.27A160.46 160.46 0 0 0 1173 830c0-49.76-22.58-94.26-58.05-123.79"/><path id="eiqlM" d="M861 830c0-83.4 67.6-151 151-151s151 67.6 151 151-67.6 151-151 151-151-67.6-151-151z"/><path id="eiqlN" d="M976.85 976.9A151.4 151.4 0 0 0 1012 981c42.7 0 81.26-17.72 108.72-46.21A150.5 150.5 0 0 0 1163 830c0-46.67-21.18-88.4-54.45-116.1"/><path id="eiqlO" d="M871 830c0-77.87 63.13-141 141-141s141 63.13 141 141-63.13 141-141 141-141-63.13-141-141z"/><path id="eiqlP" d="M979.18 967.16A141.38 141.38 0 0 0 1012 971c39.87 0 75.88-16.55 101.53-43.16A140.53 140.53 0 0 0 1153 830a140.7 140.7 0 0 0-50.84-108.42"/><path id="eiqlQ" d="M881 830c0-72.35 58.65-131 131-131s131 58.65 131 131-58.65 131-131 131-131-58.65-131-131z"/><path id="eiqlR" d="M981.51 957.43c9.78 2.33 20 3.57 30.5 3.57 37.04 0 70.49-15.38 94.32-40.1A130.56 130.56 0 0 0 1143 830c0-40.5-18.37-76.7-47.24-100.73"/><path id="eiqlS" d="M891 830c0-66.83 54.17-121 121-121s121 54.17 121 121-54.17 121-121 121-121-54.17-121-121z"/><path id="eiqlT" d="M983.84 947.7c9.04 2.16 18.47 3.3 28.16 3.3 34.22 0 65.12-14.2 87.13-37.04A120.6 120.6 0 0 0 1133 830c0-37.4-16.97-70.84-43.63-93.04"/><path id="eiqlU" d="M901 830c0-61.3 49.7-111 111-111s111 49.7 111 111-49.7 111-111 111-111-49.7-111-111z"/><path id="eiqlV" d="M986.16 937.98A111.3 111.3 0 0 0 1012 941c31.39 0 59.73-13.03 79.92-33.98A110.63 110.63 0 0 0 1123 830c0-34.31-15.57-64.99-40.03-85.35"/><path id="eiqlW" d="M911 830c0-55.78 45.22-101 101-101s101 45.22 101 101-45.22 101-101 101-101-45.22-101-101z"/><path id="eiqlX" d="M988.49 928.25c7.54 1.8 15.42 2.75 23.5 2.75a100.7 100.7 0 0 0 72.73-30.91 100.66 100.66 0 0 0 28.28-70.1c0-31.21-14.17-59.12-36.42-77.65"/><path id="eiqlY" d="M921 830a91 91 0 1 1 182 0 91 91 0 0 1-182 0z"/><path id="eiqlZ" d="M990.82 918.52A91.25 91.25 0 0 0 1012 921a90.73 90.73 0 0 0 65.52-27.85A90.7 90.7 0 0 0 1103 830a90.81 90.81 0 0 0-32.81-69.97"/><path id="eiqlaa" d="M931 830a81 81 0 1 1 162 0 81 81 0 0 1-162 0z"/><path id="eiqlab" d="M993.15 908.8A81.22 81.22 0 0 0 1012 911c22.9 0 43.6-9.5 58.33-24.79a80.73 80.73 0 0 0 22.67-56.2 80.83 80.83 0 0 0-29.2-62.29"/><path id="eiqlac" d="M941 830a71 71 0 1 1 142 0 71 71 0 0 1-142 0z"/><path id="eiqlad" d="M995.47 899.07a71.2 71.2 0 0 0 67.65-19.8A70.76 70.76 0 0 0 1083 830a70.85 70.85 0 0 0-25.6-54.59"/><path id="eiqlae" d="M951 830a61 61 0 1 1 122 0 61 61 0 0 1-122 0z"/><path id="eiqlaf" d="M997.8 889.34a61.17 61.17 0 0 0 58.12-17A60.8 60.8 0 0 0 1073 830a60.87 60.87 0 0 0-22-46.9"/><path id="eiqlag" d="M961 830a51 51 0 1 1 102 0 51 51 0 0 1-102 0z"/><path id="eiqlah" d="M1000.13 879.62a51.14 51.14 0 0 0 48.6-14.23A50.83 50.83 0 0 0 1063 830a50.9 50.9 0 0 0-18.39-39.21"/><path id="eiqlai" d="M971 830a41 41 0 1 1 82 0 41 41 0 0 1-82 0z"/><path id="eiqlaj" d="M1002.46 869.89a41.11 41.11 0 0 0 39.06-11.43A40.86 40.86 0 0 0 1053 830c0-12.67-5.75-24-14.78-31.52"/><path id="eiqlak" d="M981 830a31 31 0 1 1 62 0 31 31 0 0 1-62 0z"/><path id="eiqlal" d="M1004.78 860.15a31.08 31.08 0 0 0 29.54-8.64A30.9 30.9 0 0 0 1043 830c0-9.59-4.35-18.15-11.18-23.84"/><path id="eiqlam" d="M991 830a21 21 0 1 1 42 0 21 21 0 0 1-42 0z"/><path id="eiqlan" d="M1007.11 850.43a21.06 21.06 0 0 0 20-5.86A20.93 20.93 0 0 0 1033 830c0-6.5-2.95-12.3-7.57-16.15"/></defs><g><g clip-path="url(#clip-5013B608-A38F-48F0-9CCE-51C5A38AB591)" transform="translate(-763 -488)"><g><g><use fill="#fff" fill-opacity="0" stroke="#5951d8" stroke-dasharray="20 20" stroke-linecap="round" stroke-miterlimit="50" stroke-width="2" xlink:href="#eiqla"/></g><g><use fill="#fff" fill-opacity="0" stroke="#5951d8" stroke-linecap="round" stroke-miterlimit="50" stroke-width="2" xlink:href="#eiqlb"/></g></g><g transform="rotate(-144 1012 830)"><g><use fill="#fff" fill-opacity="0" stroke="#843ab5" stroke-dasharray="20 20" stroke-linecap="round" stroke-miterlimit="50" stroke-width="2" xlink:href="#eiqlc"/></g><g><use fill="#fff" fill-opacity="0" stroke="#843ab5" stroke-linecap="round" stroke-miterlimit="50" stroke-width="2" xlink:href="#eiqld"/></g></g><g transform="rotate(-150 1012 830)"><g><use fill="#fff" fill-opacity="0" stroke="#c23584" stroke-dasharray="20 20" stroke-linecap="round" stroke-miterlimit="50" stroke-width="2" xlink:href="#eiqle"/></g><g><use fill="#fff" fill-opacity="0" stroke="#c23584" stroke-linecap="round" stroke-miterlimit="50" stroke-width="2" xlink:href="#eiqlf"/></g></g><g transform="rotate(30 1012 830)"><g><use fill="#fff" fill-opacity="0" stroke="#e1306c" stroke-dasharray="20 20" stroke-linecap="round" stroke-miterlimit="50" stroke-width="2" xlink:href="#eiqlg"/></g><g><use fill="#fff" fill-opacity="0" stroke="#e1306c" stroke-linecap="round" stroke-miterlimit="50" stroke-width="2" xlink:href="#eiqlh"/></g></g><g transform="rotate(-135 1012 830)"><g><use fill="#fff" fill-opacity="0" stroke="#f56040" stroke-dasharray="20 20" stroke-linecap="round" stroke-miterlimit="50" stroke-width="2" xlink:href="#eiqli"/></g><g><use fill="#fff" fill-opacity="0" stroke="#f56040" stroke-linecap="round" stroke-miterlimit="50" stroke-width="2" xlink:href="#eiqlj"/></g></g><g transform="rotate(-15 1012 830)"><g><use fill="#fff" fill-opacity="0" stroke="#f67836" stroke-dasharray="20 20" stroke-linecap="round" stroke-miterlimit="50" stroke-width="2" xlink:href="#eiqlk"/></g><g><use fill="#fff" fill-opacity="0" stroke="#f67836" stroke-linecap="round" stroke-miterlimit="50" stroke-width="2" xlink:href="#eiqll"/></g></g><g transform="rotate(150 1012 830)"><g><use fill="#fff" fill-opacity="0" stroke="#fcaf45" stroke-dasharray="20 20" stroke-linecap="round" stroke-miterlimit="50" stroke-width="2" xlink:href="#eiqlm"/></g><g><use fill="#fff" fill-opacity="0" stroke="#fcaf45" stroke-linecap="round" stroke-miterlimit="50" stroke-width="2" xlink:href="#eiqln"/></g></g><g transform="rotate(-60 1012 830)"><g><use fill="#fff" fill-opacity="0" stroke="#ffdc80" stroke-dasharray="20 20" stroke-linecap="round" stroke-miterlimit="50" stroke-width="2" xlink:href="#eiqlo"/></g><g><use fill="#fff" fill-opacity="0" stroke="#ffdc80" stroke-linecap="round" stroke-miterlimit="50" stroke-width="2" xlink:href="#eiqlp"/></g></g><g transform="rotate(-30 1012 830)"><g><use fill="#fff" fill-opacity="0" stroke="#fcaf45" stroke-dasharray="20 20" stroke-linecap="round" stroke-miterlimit="50" stroke-width="2" xlink:href="#eiqlq"/></g><g><use fill="#fff" fill-opacity="0" stroke="#fcaf45" stroke-linecap="round" stroke-miterlimit="50" stroke-width="2" xlink:href="#eiqlr"/></g></g><g transform="rotate(-75 1012 830)"><g><use fill="#fff" fill-opacity="0" stroke="#f67836" stroke-dasharray="20 20" stroke-linecap="round" stroke-miterlimit="50" stroke-width="2" xlink:href="#eiqls"/></g><g><use fill="#fff" fill-opacity="0" stroke="#f67836" stroke-linecap="round" stroke-miterlimit="50" stroke-width="2" xlink:href="#eiqlt"/></g></g><g transform="rotate(-60 1012 830)"><g><use fill="#fff" fill-opacity="0" stroke="#f56040" stroke-dasharray="20 20" stroke-linecap="round" stroke-miterlimit="50" stroke-width="2" xlink:href="#eiqlu"/></g><g><use fill="#fff" fill-opacity="0" stroke="#f56040" stroke-linecap="round" stroke-miterlimit="50" stroke-width="2" xlink:href="#eiqlv"/></g></g><g transform="rotate(-90 1012 830)"><g><use fill="#fff" fill-opacity="0" stroke="#e1306c" stroke-dasharray="20 20" stroke-linecap="round" stroke-miterlimit="50" stroke-width="2" xlink:href="#eiqlw"/></g><g><use fill="#fff" fill-opacity="0" stroke="#e1306c" stroke-linecap="round" stroke-miterlimit="50" stroke-width="2" xlink:href="#eiqlx"/></g></g><g transform="rotate(150 1012 830)"><g><use fill="#fff" fill-opacity="0" stroke="#e1306c" stroke-dasharray="20 20" stroke-linecap="round" stroke-miterlimit="50" stroke-width="2" xlink:href="#eiqly"/></g><g><use fill="#fff" fill-opacity="0" stroke="#e1306c" stroke-linecap="round" stroke-miterlimit="50" stroke-width="2" xlink:href="#eiqlz"/></g></g><g transform="rotate(135 1012 830)"><g><use fill="#fff" fill-opacity="0" stroke="#c23584" stroke-dasharray="20 20" stroke-linecap="round" stroke-miterlimit="50" stroke-width="2" xlink:href="#eiqlA"/></g><g><use fill="#fff" fill-opacity="0" stroke="#c23584" stroke-linecap="round" stroke-miterlimit="50" stroke-width="2" xlink:href="#eiqlB"/></g></g><g transform="rotate(-60 1012 830)"><g><use fill="#fff" fill-opacity="0" stroke="#843ab5" stroke-dasharray="20 20" stroke-linecap="round" stroke-miterlimit="50" stroke-width="2" xlink:href="#eiqlC"/></g><g><use fill="#fff" fill-opacity="0" stroke="#843ab5" stroke-linecap="round" stroke-miterlimit="50" stroke-width="2" xlink:href="#eiqlD"/></g></g><g><g><use fill="#fff" fill-opacity="0" stroke="#5951d8" stroke-dasharray="20 20" stroke-linecap="round" stroke-miterlimit="50" stroke-width="2" xlink:href="#eiqlE"/></g><g><use fill="#fff" fill-opacity="0" stroke="#5951d8" stroke-linecap="round" stroke-miterlimit="50" stroke-width="2" xlink:href="#eiqlF"/></g></g><g transform="rotate(96 1012 830)"><g><use fill="#fff" fill-opacity="0" stroke="#843ab5" stroke-dasharray="20 20" stroke-linecap="round" stroke-miterlimit="50" stroke-width="2" xlink:href="#eiqlG"/></g><g><use fill="#fff" fill-opacity="0" stroke="#843ab5" stroke-linecap="round" stroke-miterlimit="50" stroke-width="2" xlink:href="#eiqlH"/></g></g><g transform="rotate(-79 1012 830)"><g><use fill="#fff" fill-opacity="0" stroke="#c23584" stroke-dasharray="20 20" stroke-linecap="round" stroke-miterlimit="50" stroke-width="2" xlink:href="#eiqlI"/></g><g><use fill="#fff" fill-opacity="0" stroke="#c23584" stroke-linecap="round" stroke-miterlimit="50" stroke-width="2" xlink:href="#eiqlJ"/></g></g><g transform="rotate(39 1012 830)"><g><use fill="#fff" fill-opacity="0" stroke="#e1306c" stroke-dasharray="20 20" stroke-linecap="round" stroke-miterlimit="50" stroke-width="2" xlink:href="#eiqlK"/></g><g><use fill="#fff" fill-opacity="0" stroke="#e1306c" stroke-linecap="round" stroke-miterlimit="50" stroke-width="2" xlink:href="#eiqlL"/></g></g><g><g><use fill="#fff" fill-opacity="0" stroke="#f56040" stroke-dasharray="20 20" stroke-linecap="round" stroke-miterlimit="50" stroke-width="2" xlink:href="#eiqlM"/></g><g><use fill="#fff" fill-opacity="0" stroke="#f56040" stroke-linecap="round" stroke-miterlimit="50" stroke-width="2" xlink:href="#eiqlN"/></g></g><g transform="rotate(128 1012 830)"><g><use fill="#fff" fill-opacity="0" stroke="#f67836" stroke-dasharray="20 20" stroke-linecap="round" stroke-miterlimit="50" stroke-width="2" xlink:href="#eiqlO"/></g><g><use fill="#fff" fill-opacity="0" stroke="#f67836" stroke-linecap="round" stroke-miterlimit="50" stroke-width="2" xlink:href="#eiqlP"/></g></g><g transform="rotate(-72 1012 830)"><g><use fill="#fff" fill-opacity="0" stroke="#fcaf45" stroke-dasharray="20 20" stroke-linecap="round" stroke-miterlimit="50" stroke-width="2" xlink:href="#eiqlQ"/></g><g><use fill="#fff" fill-opacity="0" stroke="#fcaf45" stroke-linecap="round" stroke-miterlimit="50" stroke-width="2" xlink:href="#eiqlR"/></g></g><g transform="rotate(126 1012 830)"><g><use fill="#fff" fill-opacity="0" stroke="#ffdc80" stroke-dasharray="20 20" stroke-linecap="round" stroke-miterlimit="50" stroke-width="2" xlink:href="#eiqlS"/></g><g><use fill="#fff" fill-opacity="0" stroke="#ffdc80" stroke-linecap="round" stroke-miterlimit="50" stroke-width="2" xlink:href="#eiqlT"/></g></g><g transform="rotate(10 1012 830)"><g><use fill="#fff" fill-opacity="0" stroke="#fcaf45" stroke-dasharray="20 20" stroke-linecap="round" stroke-miterlimit="50" stroke-width="2" xlink:href="#eiqlU"/></g><g><use fill="#fff" fill-opacity="0" stroke="#fcaf45" stroke-linecap="round" stroke-miterlimit="50" stroke-width="2" xlink:href="#eiqlV"/></g></g><g transform="rotate(-130 1012 830)"><g><use fill="#fff" fill-opacity="0" stroke="#f67836" stroke-dasharray="20 20" stroke-linecap="round" stroke-miterlimit="50" stroke-width="2" xlink:href="#eiqlW"/></g><g><use fill="#fff" fill-opacity="0" stroke="#f67836" stroke-linecap="round" stroke-miterlimit="50" stroke-width="2" xlink:href="#eiqlX"/></g></g><g transform="rotate(24 1012 830)"><g><use fill="#fff" fill-opacity="0" stroke="#f56040" stroke-dasharray="20 20" stroke-linecap="round" stroke-miterlimit="50" stroke-width="2" xlink:href="#eiqlY"/></g><g><use fill="#fff" fill-opacity="0" stroke="#f56040" stroke-linecap="round" stroke-miterlimit="50" stroke-width="2" xlink:href="#eiqlZ"/></g></g><g transform="rotate(-27 1012 830)"><g><use fill="#fff" fill-opacity="0" stroke="#e1306c" stroke-dasharray="20 20" stroke-linecap="round" stroke-miterlimit="50" stroke-width="2" xlink:href="#eiqlaa"/></g><g><use fill="#fff" fill-opacity="0" stroke="#e1306c" stroke-linecap="round" stroke-miterlimit="50" stroke-width="2" xlink:href="#eiqlab"/></g></g><g transform="rotate(70 1012 830)"><g><use fill="#fff" fill-opacity="0" stroke="#c23584" stroke-dasharray="20 20" stroke-linecap="round" stroke-miterlimit="50" stroke-width="2" xlink:href="#eiqlac"/></g><g><use fill="#fff" fill-opacity="0" stroke="#c23584" stroke-linecap="round" stroke-miterlimit="50" stroke-width="2" xlink:href="#eiqlad"/></g></g><g transform="rotate(37 1012 830)"><g><use fill="#fff" fill-opacity="0" stroke="#843ab5" stroke-dasharray="20 20" stroke-linecap="round" stroke-miterlimit="50" stroke-width="2" xlink:href="#eiqlae"/></g><g><use fill="#fff" fill-opacity="0" stroke="#843ab5" stroke-linecap="round" stroke-miterlimit="50" stroke-width="2" xlink:href="#eiqlaf"/></g></g><g transform="rotate(-21 1012 830)"><g><use fill="#fff" fill-opacity="0" stroke="#5951d8" stroke-dasharray="20 20" stroke-linecap="round" stroke-miterlimit="50" stroke-width="2" xlink:href="#eiqlag"/></g><g><use fill="#fff" fill-opacity="0" stroke="#5951d8" stroke-linecap="round" stroke-miterlimit="50" stroke-width="2" xlink:href="#eiqlah"/></g></g><g transform="rotate(-20 1012 830)"><g><use fill="#fff" fill-opacity="0" stroke="#843ab5" stroke-dasharray="20 20" stroke-linecap="round" stroke-miterlimit="50" stroke-width="2" xlink:href="#eiqlai"/></g><g><use fill="#fff" fill-opacity="0" stroke="#843ab5" stroke-linecap="round" stroke-miterlimit="50" stroke-width="2" xlink:href="#eiqlaj"/></g></g><g transform="rotate(-14 1012 830)"><g><use fill="#fff" fill-opacity="0" stroke="#e1306c" stroke-dasharray="20 20" stroke-linecap="round" stroke-miterlimit="50" stroke-width="2" xlink:href="#eiqlak"/></g><g><use fill="#fff" fill-opacity="0" stroke="#e1306c" stroke-linecap="round" stroke-miterlimit="50" stroke-width="2" xlink:href="#eiqlal"/></g></g><g transform="rotate(28 1012 830)"><g><use fill="#fff" fill-opacity="0" stroke="#f56040" stroke-dasharray="20 20" stroke-linecap="round" stroke-miterlimit="50" stroke-width="2" xlink:href="#eiqlam"/></g><g><use fill="#fff" fill-opacity="0" stroke="#f56040" stroke-linecap="round" stroke-miterlimit="50" stroke-width="2" xlink:href="#eiqlan"/></g></g></g></g></svg>