<?xml version="1.0" encoding="UTF-8"?>
<svg width="684px" height="682px" viewBox="0 0 684 682" version="1.1" xmlns="http://www.w3.org/2000/svg" xmlns:xlink="http://www.w3.org/1999/xlink">
    <!-- Generator: Sketch 50.2 (55047) - http://www.bohemiancoding.com/sketch -->
    <title>backup circles copy</title>
    <desc>Created with Sketch.</desc>
    <defs></defs>
    <g id="Page-1" stroke="none" stroke-width="1" fill="none" fill-rule="evenodd" stroke-linecap="round">
        <g id="landing" transform="translate(-713.000000, -69.000000)" stroke-width="2">
            <g id="circles" transform="translate(592.000000, -52.000000)">
                <g id="backup-circles-copy">
                    <g id="Group-5" transform="translate(122.000000, 122.000000)" stroke="#5951D8">
                        <path d="M341,680 C529.3291,680 682,527.776815 682,340 C682,152.223185 529.3291,0 341,0 C152.6709,0 0,152.223185 0,340 C0,527.776815 152.6709,680 341,680 Z" id="Oval-4" stroke-dasharray="20,20"></path>
                        <path d="M261.627841,670.741167 C287.096104,676.794906 313.672656,680 341,680 C437.428512,680 524.508664,640.092284 586.533314,575.937929 C645.645516,514.796024 682,431.631084 682,340 C682,234.901555 634.173906,140.940735 559.037873,78.5735301" id="Oval-4-Copy"></path>
                    </g>
                    <g id="Group-5-Copy" transform="translate(463.000000, 463.000000) rotate(216.000000) translate(-463.000000, -463.000000) translate(132.000000, 132.000000)" stroke="#843AB5">
                        <path d="M331,662 C513.806252,662 662,513.806252 662,331 C662,148.193748 513.806252,0 331,0 C148.193748,0 0,148.193748 0,331 C0,513.806252 148.193748,662 331,662 Z" id="Oval-4" stroke-dasharray="20,20"></path>
                        <path d="M253.95547,652.986254 C278.676863,658.879747 304.474045,662 331,662 C424.600697,662 509.127178,623.148664 569.332923,560.692513 C626.71163,501.16907 662,420.205555 662,331 C662,228.683573 615.576431,137.209951 542.643801,76.4936425" id="Oval-4-Copy"></path>
                    </g>
                    <g id="Group-5-Copy-2" transform="translate(463.000000, 463.000000) rotate(-150.000000) translate(-463.000000, -463.000000) translate(142.000000, 142.000000)" stroke="#C23584">
                        <path d="M321,642 C498.283405,642 642,498.283405 642,321 C642,143.716595 498.283405,0 321,0 C143.716595,0 0,143.716595 0,321 C0,498.283405 143.716595,642 321,642 Z" id="Oval-4" stroke-dasharray="20,20"></path>
                        <path d="M246.283099,633.258572 C270.257623,638.974014 295.275433,642 321,642 C411.772881,642 493.745692,604.322421 552.132533,543.753162 C607.777744,486.028011 642,407.510524 642,321 C642,221.774703 596.978956,133.064635 526.249728,74.1826564" id="Oval-4-Copy"></path>
                    </g>
                    <g id="Group-5-Copy-3" transform="translate(463.000000, 463.000000) rotate(-330.000000) translate(-463.000000, -463.000000) translate(152.000000, 152.000000)" stroke="#E1306C">
                        <path d="M311,622 C482.760557,622 622,482.760557 622,311 C622,139.239443 482.760557,0 311,0 C139.239443,0 0,139.239443 0,311 C0,482.760557 139.239443,622 311,622 Z" id="Oval-4" stroke-dasharray="20,20"></path>
                        <path d="M238.610729,613.530891 C261.838382,619.068282 286.076821,622 311,622 C398.945066,622 478.364206,585.496177 534.932142,526.813811 C588.843858,470.886951 622,394.815492 622,311 C622,214.865834 578.38148,128.919319 509.855656,71.8716702" id="Oval-4-Copy"></path>
                    </g>
                    <g id="Group-5-Copy-4" transform="translate(463.000000, 463.000000) rotate(-135.000000) translate(-463.000000, -463.000000) translate(162.000000, 162.000000)" stroke="#F56040">
                        <path d="M301,602 C467.23771,602 602,467.23771 602,301 C602,134.76229 467.23771,0 301,0 C134.76229,0 0,134.76229 0,301 C0,467.23771 134.76229,602 301,602 Z" id="Oval-4" stroke-dasharray="20,20"></path>
                        <path d="M230.938358,593.803209 C253.419142,599.162549 276.87821,602 301,602 C386.11725,602 462.982721,566.669933 517.731752,509.87446 C569.909972,455.745892 602,382.12046 602,301 C602,207.956965 559.784005,124.774003 493.461583,69.560684" id="Oval-4-Copy"></path>
                    </g>
                    <g id="Group-5-Copy-5" transform="translate(463.000000, 463.000000) rotate(-15.000000) translate(-463.000000, -463.000000) translate(172.000000, 172.000000)" stroke="#F67836">
                        <path d="M291,582 C451.714862,582 582,451.714862 582,291 C582,130.285138 451.714862,0 291,0 C130.285138,0 0,130.285138 0,291 C0,451.714862 130.285138,582 291,582 Z" id="Oval-4" stroke-dasharray="20,20"></path>
                        <path d="M223.265987,574.075528 C244.999901,579.256817 267.679598,582 291,582 C373.289434,582 447.601235,547.84369 500.531362,492.935109 C550.976086,440.604832 582,369.425428 582,291 C582,201.048096 541.18653,120.628688 477.067511,67.2496978" id="Oval-4-Copy"></path>
                    </g>
                    <g id="Group-5-Copy-6" transform="translate(463.000000, 463.000000) rotate(-210.000000) translate(-463.000000, -463.000000) translate(182.000000, 182.000000)" stroke="#FCAF45">
                        <path d="M281,562 C436.192015,562 562,436.192015 562,281 C562,125.807985 436.192015,0 281,0 C125.807985,0 0,125.807985 0,281 C0,436.192015 125.807985,562 281,562 Z" id="Oval-4" stroke-dasharray="20,20"></path>
                        <path d="M215.593617,554.347847 C236.58066,559.351084 258.480986,562 281,562 C360.461619,562 432.219749,529.017446 483.330971,475.995759 C532.0422,425.463773 562,356.730396 562,281 C562,194.139226 522.589055,116.483372 460.673438,64.9387116" id="Oval-4-Copy"></path>
                    </g>
                    <g id="Group-5-Copy-7" transform="translate(463.000000, 463.000000) rotate(-60.000000) translate(-463.000000, -463.000000) translate(192.000000, 192.000000)" stroke="#FFDC80">
                        <path d="M271,542 C420.669167,542 542,420.669167 542,271 C542,121.330833 420.669167,0 271,0 C121.330833,0 0,121.330833 0,271 C0,420.669167 121.330833,542 271,542 Z" id="Oval-4" stroke-dasharray="20,20"></path>
                        <path d="M207.921246,534.620165 C228.16142,539.445351 249.282375,542 271,542 C347.633803,542 416.838263,510.191202 466.130581,459.056408 C513.108314,410.322713 542,344.035364 542,271 C542,187.230357 503.991579,112.338056 444.279366,62.6277255" id="Oval-4-Copy"></path>
                    </g>
                    <g id="Group-5-Copy-8" transform="translate(463.000000, 463.000000) rotate(-30.000000) translate(-463.000000, -463.000000) translate(202.000000, 202.000000)" stroke="#FCAF45">
                        <path d="M261,522 C405.14632,522 522,405.14632 522,261 C522,116.85368 405.14632,0 261,0 C116.85368,0 0,116.85368 0,261 C0,405.14632 116.85368,522 261,522 Z" id="Oval-4" stroke-dasharray="20,20"></path>
                        <path d="M200.248875,514.892484 C219.742179,519.539619 240.083763,522 261,522 C334.805987,522 401.456778,491.364959 448.93019,442.117057 C494.174428,395.181654 522,331.340332 522,261 C522,180.321488 485.394104,108.192741 427.885293,60.3167393" id="Oval-4-Copy"></path>
                    </g>
                    <g id="Group-5-Copy-32" transform="translate(463.000000, 463.000000) rotate(-75.000000) translate(-463.000000, -463.000000) translate(212.000000, 212.000000)" stroke="#F67836">
                        <path d="M251,502 C389.623472,502 502,389.623472 502,251 C502,112.376528 389.623472,0 251,0 C112.376528,0 0,112.376528 0,251 C0,389.623472 112.376528,502 251,502 Z" id="Oval-4" stroke-dasharray="20,20"></path>
                        <path d="M192.576505,495.164803 C211.322939,499.633886 230.885152,502 251,502 C321.978172,502 386.075292,472.538715 431.7298,425.177706 C475.240541,380.040594 502,318.6453 502,251 C502,173.412618 466.796629,104.047425 411.491221,58.0057531" id="Oval-4-Copy"></path>
                    </g>
                    <g id="Group-5-Copy-9" transform="translate(463.000000, 463.000000) rotate(-60.000000) translate(-463.000000, -463.000000) translate(222.000000, 222.000000)" stroke="#F56040">
                        <path d="M241,482 C374.100625,482 482,374.100625 482,241 C482,107.899375 374.100625,0 241,0 C107.899375,0 0,107.899375 0,241 C0,374.100625 107.899375,482 241,482 Z" id="Oval-4" stroke-dasharray="20,20"></path>
                        <path d="M184.904134,475.437121 C202.903698,479.728154 221.68654,482 241,482 C309.150356,482 370.693806,453.712472 414.529409,408.238355 C456.306655,364.899535 482,305.950268 482,241 C482,166.503749 448.199154,99.9021091 395.097148,55.6947669" id="Oval-4-Copy"></path>
                    </g>
                    <g id="Group-5-Copy-10" transform="translate(463.000000, 463.000000) rotate(-90.000000) translate(-463.000000, -463.000000) translate(232.000000, 232.000000)" stroke="#E1306C">
                        <path d="M231,462 C358.577777,462 462,358.577777 462,231 C462,103.422223 358.577777,0 231,0 C103.422223,0 0,103.422223 0,231 C0,358.577777 103.422223,462 231,462 Z" id="Oval-4" stroke-dasharray="20,20"></path>
                        <path d="M177.231763,455.70944 C194.484458,459.822421 212.487928,462 231,462 C296.322541,462 355.312321,434.886228 397.329019,391.299004 C437.372769,349.758475 462,293.255237 462,231 C462,159.59488 429.601678,95.7567934 378.703076,53.3837807" id="Oval-4-Copy"></path>
                    </g>
                    <g id="Group-5-Copy-11" transform="translate(463.000000, 463.000000) rotate(-210.000000) translate(-463.000000, -463.000000) translate(242.000000, 242.000000)" stroke="#E1306C">
                        <path d="M221,442 C343.05493,442 442,343.05493 442,221 C442,98.9450703 343.05493,0 221,0 C98.9450703,0 0,98.9450703 0,221 C0,343.05493 98.9450703,442 221,442 Z" id="Oval-4" stroke-dasharray="20,20"></path>
                        <path d="M169.559392,435.981758 C186.065217,439.916689 203.289317,442 221,442 C283.494725,442 339.930835,416.059984 380.128629,374.359654 C418.438883,334.617416 442,280.560205 442,221 C442,152.686011 411.004203,91.6114776 362.309003,51.0727946" id="Oval-4-Copy"></path>
                    </g>
                    <g id="Group-5-Copy-12" transform="translate(463.000000, 463.000000) rotate(-225.000000) translate(-463.000000, -463.000000) translate(252.000000, 252.000000)" stroke="#C23584">
                        <path d="M211,422 C327.532082,422 422,327.532082 422,211 C422,94.4679178 327.532082,0 211,0 C94.4679178,0 0,94.4679178 0,211 C0,327.532082 94.4679178,422 211,422 Z" id="Oval-4" stroke-dasharray="20,20"></path>
                        <path d="M161.887022,416.254077 C177.645976,420.010956 194.090705,422 211,422 C270.666909,422 324.549349,397.233741 362.928238,357.420303 C399.504997,319.476356 422,267.865173 422,211 C422,145.777141 392.406728,87.4661619 345.914931,48.7618084" id="Oval-4-Copy"></path>
                    </g>
                    <g id="Group-5-Copy-13" transform="translate(463.000000, 463.000000) rotate(-60.000000) translate(-463.000000, -463.000000) translate(262.000000, 262.000000)" stroke="#843AB5">
                        <path d="M201,402 C312.009235,402 402,312.009235 402,201 C402,89.9907653 312.009235,0 201,0 C89.9907653,0 0,89.9907653 0,201 C0,312.009235 89.9907653,402 201,402 Z" id="Oval-4" stroke-dasharray="20,20"></path>
                        <path d="M154.214651,396.526396 C169.226736,400.105224 184.892094,402 201,402 C257.839094,402 309.167863,378.407497 345.727848,340.480952 C380.571111,304.335297 402,255.170141 402,201 C402,138.868272 373.809253,83.3208462 329.520858,46.4508222" id="Oval-4-Copy"></path>
                    </g>
                    <g id="Group-5-Copy-14" transform="translate(272.000000, 272.000000)" stroke="#5951D8">
                        <path d="M191,382 C296.486387,382 382,296.486387 382,191 C382,85.5136128 296.486387,0 191,0 C85.5136128,0 0,85.5136128 0,191 C0,296.486387 85.5136128,382 191,382 Z" id="Oval-4" stroke-dasharray="20,20"></path>
                        <path d="M146.54228,376.798714 C160.807495,380.199491 175.693482,382 191,382 C245.011278,382 293.786378,359.581253 328.527457,323.541601 C361.637225,289.194237 382,242.475109 382,191 C382,131.959403 355.211777,79.1755305 313.126785,44.139836" id="Oval-4-Copy"></path>
                    </g>
                    <g id="Group-5-Copy-15" transform="translate(463.000000, 463.000000) rotate(96.000000) translate(-463.000000, -463.000000) translate(282.000000, 282.000000)" stroke="#843AB5">
                        <path d="M181,362 C280.96354,362 362,280.96354 362,181 C362,81.0364603 280.96354,0 181,0 C81.0364603,0 0,81.0364603 0,181 C0,280.96354 81.0364603,362 181,362 Z" id="Oval-4" stroke-dasharray="20,20"></path>
                        <path d="M138.86991,357.071033 C152.388255,360.293759 166.49487,362 181,362 C232.183463,362 278.404892,340.75501 311.327067,306.60225 C342.703339,274.053178 362,229.780077 362,181 C362,125.050534 336.614302,75.0302147 296.732713,41.8288499" id="Oval-4-Copy"></path>
                    </g>
                    <g id="Group-5-Copy-16" transform="translate(463.000000, 463.000000) rotate(-79.000000) translate(-463.000000, -463.000000) translate(292.000000, 292.000000)" stroke="#C23584">
                        <path d="M171,342 C265.440692,342 342,265.440692 342,171 C342,76.5593078 265.440692,0 171,0 C76.5593078,0 0,76.5593078 0,171 C0,265.440692 76.5593078,342 171,342 Z" id="Oval-4" stroke-dasharray="20,20"></path>
                        <path d="M131.197539,337.343352 C143.969014,340.388026 157.296259,342 171,342 C219.355647,342 263.023406,321.928766 294.126676,289.662899 C323.769453,258.912118 342,217.085045 342,171 C342,118.141664 318.016827,70.884899 280.33864,39.5178637" id="Oval-4-Copy"></path>
                    </g>
                    <g id="Group-5-Copy-17" transform="translate(463.000000, 463.000000) rotate(39.000000) translate(-463.000000, -463.000000) translate(302.000000, 302.000000)" stroke="#E1306C">
                        <path d="M161,322 C249.917845,322 322,249.917845 322,161 C322,72.0821553 249.917845,0 161,0 C72.0821553,0 0,72.0821553 0,161 C0,249.917845 72.0821553,322 161,322 Z" id="Oval-4" stroke-dasharray="20,20"></path>
                        <path d="M123.525168,317.61567 C135.549773,320.482294 148.097647,322 161,322 C206.527831,322 247.64192,303.102522 276.926286,272.723549 C304.835566,243.771058 322,204.390013 322,161 C322,111.232795 299.419352,66.7395833 263.944568,37.2068775" id="Oval-4-Copy"></path>
                    </g>
                    <g id="Group-5-Copy-18" transform="translate(312.000000, 312.000000)" stroke="#F56040">
                        <path d="M151,302 C234.394997,302 302,234.394997 302,151 C302,67.6050028 234.394997,0 151,0 C67.6050028,0 0,67.6050028 0,151 C0,234.394997 67.6050028,302 151,302 Z" id="Oval-4" stroke-dasharray="20,20"></path>
                        <path d="M115.852798,297.887989 C127.130533,300.576561 138.899035,302 151,302 C193.700016,302 232.260435,284.276279 259.725896,255.784198 C285.90168,228.629999 302,191.694981 302,151 C302,104.323926 280.821876,62.5942675 247.550495,34.8958913" id="Oval-4-Copy"></path>
                    </g>
                    <g id="Group-5-Copy-19" transform="translate(463.000000, 463.000000) rotate(128.000000) translate(-463.000000, -463.000000) translate(322.000000, 322.000000)" stroke="#F67836">
                        <path d="M141,282 C218.87215,282 282,218.87215 282,141 C282,63.1278503 218.87215,0 141,0 C63.1278503,0 0,63.1278503 0,141 C0,218.87215 63.1278503,282 141,282 Z" id="Oval-4" stroke-dasharray="20,20"></path>
                        <path d="M108.180427,278.160307 C118.711292,280.670829 129.700424,282 141,282 C180.8722,282 216.878949,265.450035 242.525505,238.844847 C266.967794,213.488939 282,178.99995 282,141 C282,97.4150566 262.224401,58.4489518 231.156423,32.5849051" id="Oval-4-Copy"></path>
                    </g>
                    <g id="Group-5-Copy-20" transform="translate(463.000000, 463.000000) rotate(288.000000) translate(-463.000000, -463.000000) translate(332.000000, 332.000000)" stroke="#FCAF45">
                        <path d="M131,262 C203.349302,262 262,203.349302 262,131 C262,58.6506978 203.349302,0 131,0 C58.6506978,0 0,58.6506978 0,131 C0,203.349302 58.6506978,262 131,262 Z" id="Oval-4" stroke-dasharray="20,20"></path>
                        <path d="M100.508056,258.432626 C110.292052,260.765096 120.501812,262 131,262 C168.044385,262 201.497463,246.623792 225.325115,221.905496 C248.033908,198.34788 262,166.304918 262,131 C262,90.5061873 243.626926,54.3036361 214.76235,30.273919" id="Oval-4-Copy"></path>
                    </g>
                    <g id="Group-5-Copy-21" transform="translate(463.000000, 463.000000) rotate(126.000000) translate(-463.000000, -463.000000) translate(342.000000, 342.000000)" stroke="#FFDC80">
                        <path d="M121,242 C187.826455,242 242,187.826455 242,121 C242,54.1735453 187.826455,0 121,0 C54.1735453,0 0,54.1735453 0,121 C0,187.826455 54.1735453,242 121,242 Z" id="Oval-4" stroke-dasharray="20,20"></path>
                        <path d="M92.8356854,238.704945 C101.872811,240.859364 111.303201,242 121,242 C155.216569,242 186.115977,227.797548 208.124724,204.966145 C229.100022,183.20682 242,153.609886 242,121 C242,83.5973181 225.029451,50.1583203 198.368278,27.9629328" id="Oval-4-Copy"></path>
                    </g>
                    <g id="Group-5-Copy-22" transform="translate(463.000000, 463.000000) rotate(10.000000) translate(-463.000000, -463.000000) translate(352.000000, 352.000000)" stroke="#FCAF45">
                        <path d="M111,222 C172.303607,222 222,172.303607 222,111 C222,49.6963928 172.303607,0 111,0 C49.6963928,0 0,49.6963928 0,111 C0,172.303607 49.6963928,222 111,222 Z" id="Oval-4" stroke-dasharray="20,20"></path>
                        <path d="M85.1633147,218.977263 C93.4535705,220.953631 102.104589,222 111,222 C142.388753,222 170.734492,208.971304 190.924334,188.026794 C210.166136,168.065761 222,140.914854 222,111 C222,76.6884488 206.431975,46.0130046 181.974205,25.6519466" id="Oval-4-Copy"></path>
                    </g>
                    <g id="Group-5-Copy-23" transform="translate(463.000000, 463.000000) rotate(590.000000) translate(-463.000000, -463.000000) translate(362.000000, 362.000000)" stroke="#F67836">
                        <path d="M101,202 C156.78076,202 202,156.78076 202,101 C202,45.2192403 156.78076,0 101,0 C45.2192403,0 0,45.2192403 0,101 C0,156.78076 45.2192403,202 101,202 Z" id="Oval-4" stroke-dasharray="20,20"></path>
                        <path d="M77.4909441,199.249582 C85.0343299,201.047899 92.9059774,202 101,202 C129.560938,202 155.353006,190.145061 173.723943,171.087443 C191.23225,152.924701 202,128.219822 202,101 C202,69.7795795 187.8345,41.8676889 165.580133,23.3409604" id="Oval-4-Copy"></path>
                    </g>
                    <g id="Group-5-Copy-24" transform="translate(463.000000, 463.000000) rotate(384.000000) translate(-463.000000, -463.000000) translate(372.000000, 372.000000)" stroke="#F56040">
                        <path d="M91,182 C141.257912,182 182,141.257912 182,91 C182,40.7420878 141.257912,0 91,0 C40.7420878,0 0,40.7420878 0,91 C0,141.257912 40.7420878,182 91,182 Z" id="Oval-4" stroke-dasharray="20,20"></path>
                        <path d="M69.8185734,179.521901 C76.6150893,181.142166 83.7073657,182 91,182 C116.733122,182 139.97152,171.318817 156.523553,154.148093 C172.298364,137.783642 182,115.52479 182,91 C182,62.8707103 169.237025,37.7223731 149.18606,21.0299742" id="Oval-4-Copy"></path>
                    </g>
                    <g id="Group-5-Copy-25" transform="translate(463.000000, 463.000000) rotate(-27.000000) translate(-463.000000, -463.000000) translate(382.000000, 382.000000)" stroke="#E1306C">
                        <path d="M81,162 C125.735065,162 162,125.735065 162,81 C162,36.2649353 125.735065,0 81,0 C36.2649353,0 0,36.2649353 0,81 C0,125.735065 36.2649353,162 81,162 Z" id="Oval-4" stroke-dasharray="20,20"></path>
                        <path d="M62.1462027,159.794219 C68.1958487,161.236433 74.5087541,162 81,162 C103.905306,162 124.590034,152.492573 139.323162,137.208742 C153.364478,122.642582 162,102.829758 162,81 C162,55.961841 150.63955,33.5770574 132.791988,18.7189881" id="Oval-4-Copy"></path>
                    </g>
                    <g id="Group-5-Copy-26" transform="translate(463.000000, 463.000000) rotate(70.000000) translate(-463.000000, -463.000000) translate(392.000000, 392.000000)" stroke="#C23584">
                        <path d="M71,142 C110.212217,142 142,110.212217 142,71 C142,31.7877828 110.212217,0 71,0 C31.7877828,0 0,31.7877828 0,71 C0,110.212217 31.7877828,142 71,142 Z" id="Oval-4" stroke-dasharray="20,20"></path>
                        <path d="M54.473832,140.066538 C59.7766082,141.330701 65.3101425,142 71,142 C91.0774908,142 109.208549,133.66633 122.122772,120.269391 C134.430591,107.501523 142,90.1347264 142,71 C142,49.0529718 132.042074,29.4317417 116.397915,16.4080019" id="Oval-4-Copy"></path>
                    </g>
                    <g id="Group-5-Copy-27" transform="translate(463.000000, 463.000000) rotate(37.000000) translate(-463.000000, -463.000000) translate(402.000000, 402.000000)" stroke="#843AB5">
                        <path d="M61,122 C94.6893697,122 122,94.6893697 122,61 C122,27.3106303 94.6893697,0 61,0 C27.3106303,0 0,27.3106303 0,61 C0,94.6893697 27.3106303,122 61,122 Z" id="Oval-4" stroke-dasharray="20,20"></path>
                        <path d="M46.8014613,120.338856 C51.3573676,121.424968 56.1115309,122 61,122 C78.2496752,122 93.827063,114.840086 104.922382,103.33004 C115.496705,92.3604631 122,77.4396945 122,61 C122,42.1441025 113.444599,25.286426 100.003842,14.0970157" id="Oval-4-Copy"></path>
                    </g>
                    <g id="Group-5-Copy-28" transform="translate(463.000000, 463.000000) rotate(-21.000000) translate(-463.000000, -463.000000) translate(412.000000, 412.000000)" stroke="#5951D8">
                        <path d="M51,102 C79.1665222,102 102,79.1665222 102,51 C102,22.8334778 79.1665222,0 51,0 C22.8334778,0 0,22.8334778 0,51 C0,79.1665222 22.8334778,102 51,102 Z" id="Oval-4" stroke-dasharray="20,20"></path>
                        <path d="M39.1290906,100.611175 C42.938127,101.519236 46.9129193,102 51,102 C65.4218596,102 78.4455773,96.0138425 87.7219912,86.3906893 C96.5628192,77.2194036 102,64.7446626 102,51 C102,35.2352332 94.8471238,21.1411102 83.6097699,11.7860295" id="Oval-4-Copy"></path>
                    </g>
                    <g id="Group-5-Copy-29" transform="translate(463.000000, 463.000000) rotate(-20.000000) translate(-463.000000, -463.000000) translate(422.000000, 422.000000)" stroke="#843AB5">
                        <path d="M41,82 C63.6436747,82 82,63.6436747 82,41 C82,18.3563253 63.6436747,0 41,0 C18.3563253,0 0,18.3563253 0,41 C0,63.6436747 18.3563253,82 41,82 Z" id="Oval-4" stroke-dasharray="20,20"></path>
                        <path d="M31.4567199,80.8834936 C34.5188864,81.6135034 37.7143076,82 41,82 C52.594044,82 63.0640915,77.1875989 70.5216008,69.4513384 C77.6289331,62.0783441 82,52.0496307 82,41 C82,28.326364 76.2496485,16.9957945 67.2156974,9.47504334" id="Oval-4-Copy"></path>
                    </g>
                    <g id="Group-5-Copy-30" transform="translate(463.000000, 463.000000) rotate(-14.000000) translate(-463.000000, -463.000000) translate(432.000000, 432.000000)" stroke="#E1306C">
                        <path d="M31,62 C48.1208272,62 62,48.1208272 62,31 C62,13.8791728 48.1208272,0 31,0 C13.8791728,0 0,13.8791728 0,31 C0,48.1208272 13.8791728,62 31,62 Z" id="Oval-4" stroke-dasharray="20,20"></path>
                        <path d="M23.7843492,61.1558123 C26.0996458,61.7077708 28.515696,62 31,62 C39.7662284,62 47.6826058,58.3613553 53.3212103,52.5119876 C58.6950469,46.9372845 62,39.3545988 62,31 C62,21.4174947 57.6521733,12.8504788 50.8216249,7.16405716" id="Oval-4-Copy"></path>
                    </g>
                    <g id="Group-5-Copy-31" transform="translate(463.000000, 463.000000) rotate(28.000000) translate(-463.000000, -463.000000) translate(442.000000, 442.000000)" stroke="#F56040">
                        <path d="M21,42 C32.5979797,42 42,32.5979797 42,21 C42,9.40202025 32.5979797,0 21,0 C9.40202025,0 0,9.40202025 0,21 C0,32.5979797 9.40202025,42 21,42 Z" id="Oval-4" stroke-dasharray="20,20"></path>
                        <path d="M16.1119785,41.4281309 C17.6804052,41.8020383 19.3170844,42 21,42 C26.9384128,42 32.30112,39.5351116 36.1208199,35.5726368 C39.7611608,31.796225 42,26.659567 42,21 C42,14.5086255 39.054698,8.70516303 34.4275523,4.85307098" id="Oval-4-Copy"></path>
                    </g>
                </g>
            </g>
        </g>
    </g>
</svg>