<svg xmlns="http://www.w3.org/2000/svg" xmlns:xlink="http://www.w3.org/1999/xlink" width="32" height="22" viewBox="0 0 32 22"><defs><path id="5z0ga" d="M30 184c0-1.1.9-2 2-2h26a2 2 0 0 1 2 2v16a2 2 0 0 1-2 2H32a2 2 0 0 1-2-2z"/><path id="5z0gb" d="M30 199.14l11.13-9.52 5.8 5.71 2.9-3.8L60 200.1"/><path id="5z0gc" d="M51.77 187.24a2.4 2.4 0 0 1 2.42-2.38 2.4 2.4 0 0 1 2.42 2.38 2.4 2.4 0 0 1-2.42 2.38 2.4 2.4 0 0 1-2.42-2.38z"/></defs><g><g transform="translate(-29 -181)"><g><use fill="#fff" fill-opacity="0" stroke="#222" stroke-miterlimit="50" xlink:href="#5z0ga"/></g><g><use fill="#fff" fill-opacity="0" stroke="#222" stroke-linejoin="round" stroke-miterlimit="50" xlink:href="#5z0gb"/></g><g><use fill="#fff" fill-opacity="0" stroke="#222" stroke-miterlimit="50" xlink:href="#5z0gc"/></g></g></g></svg>